<?xml version="1.0" standalone="no"?>
<!DOCTYPE svg PUBLIC "-//W3C//DTD SVG 20010904//EN"
 "http://www.w3.org/TR/2001/REC-SVG-20010904/DTD/svg10.dtd">
<svg version="1.0" xmlns="http://www.w3.org/2000/svg"
 width="1400.000000pt" height="1400.000000pt" viewBox="0 0 1400.000000 1400.000000"
 preserveAspectRatio="xMidYMid meet">
<metadata>
Created by potrace 1.11, written by Peter Selinger 2001-2013
</metadata>
<g transform="translate(0.000000,1400.000000) scale(0.100000,-0.100000)"
fill="#000000" stroke="none">
<path d="M6509 13724 c-12 -31 -201 -568 -254 -724 -18 -52 -68 -194 -110
-315 -42 -121 -83 -240 -91 -265 -7 -25 -20 -54 -28 -65 -15 -21 -20 -18 -696
440 -91 61 -284 192 -430 290 -146 97 -272 184 -281 191 -8 8 -24 14 -33 14
-16 0 -17 -6 -12 -47 3 -27 8 -60 11 -75 3 -16 7 -40 9 -55 5 -33 35 -226 41
-265 3 -16 7 -40 10 -55 2 -16 11 -73 20 -128 8 -55 17 -113 20 -130 3 -16 7
-43 10 -60 3 -16 7 -41 10 -55 3 -14 7 -38 10 -55 5 -40 16 -103 21 -129 5
-27 24 -143 29 -176 2 -14 6 -37 10 -51 11 -46 -10 -41 -86 19 -248 195 -505
358 -798 506 -150 76 -177 77 -119 4 203 -251 465 -756 615 -1183 13 -38 28
-79 33 -90 4 -11 13 -34 20 -52 6 -17 18 -34 25 -37 8 -3 96 37 197 88 284
144 536 249 843 352 255 85 562 167 738 198 15 3 35 7 45 10 9 3 35 7 57 11
22 3 78 12 125 20 47 8 103 17 125 19 22 3 57 8 78 11 82 11 105 14 177 20 41
4 89 8 105 10 201 24 788 24 1035 0 25 -2 72 -7 105 -10 87 -8 353 -44 440
-59 11 -2 40 -7 65 -11 24 -3 47 -8 50 -10 4 -2 29 -7 56 -11 27 -3 59 -10 71
-15 13 -5 23 -7 23 -5 0 2 68 -13 151 -34 83 -21 158 -36 165 -33 8 3 15 13
15 22 1 9 3 25 4 36 12 77 34 237 39 270 47 363 189 893 297 1104 42 85 39
100 -13 62 -24 -17 -56 -42 -71 -55 -16 -14 -47 -40 -70 -58 -87 -71 -148
-128 -314 -295 -94 -95 -180 -186 -190 -203 -9 -16 -20 -30 -23 -30 -4 0 -31
-30 -61 -67 -29 -38 -56 -70 -59 -73 -4 -3 -14 -16 -23 -30 -9 -13 -18 -19
-18 -12 -1 6 -2 15 -3 20 -1 4 -6 52 -10 107 -4 55 -9 123 -12 150 -2 28 -6
88 -9 135 -3 47 -7 110 -10 140 -2 30 -7 93 -10 140 -6 96 -14 199 -20 280 -2
30 -7 100 -11 155 -4 55 -8 116 -9 135 -2 19 -4 43 -4 53 -2 31 -26 18 -81
-40 -192 -209 -273 -297 -336 -363 -39 -41 -108 -115 -154 -165 -46 -49 -116
-124 -154 -165 -39 -42 -123 -131 -186 -200 -63 -68 -128 -138 -143 -155 -76
-81 -130 -135 -136 -135 -12 0 -26 15 -52 55 -35 53 -308 480 -384 600 -33 53
-109 173 -169 268 -61 94 -134 210 -163 256 l-53 83 -11 -28z"/>
<path d="M7297 11583 c-1 0 -69 -4 -150 -8 -82 -4 -156 -8 -165 -10 -10 -1
-53 -6 -97 -9 -44 -4 -91 -9 -105 -11 -14 -2 -52 -6 -85 -10 -32 -4 -66 -8
-75 -10 -8 -1 -35 -6 -60 -9 -115 -16 -363 -65 -495 -97 -66 -17 -129 -32
-140 -34 -11 -3 -51 -14 -90 -25 -38 -12 -78 -23 -87 -25 -48 -11 -392 -130
-514 -179 -196 -78 -401 -170 -425 -192 -19 -17 -18 -18 63 -35 192 -38 380
-151 508 -304 78 -93 198 -299 181 -309 -4 -3 -32 11 -62 31 -181 119 -412
187 -609 179 -109 -4 -170 -18 -257 -57 -173 -77 -299 -218 -364 -407 -53
-154 -67 -404 -33 -597 26 -150 107 -383 179 -519 19 -36 15 -40 -21 -24 -85
37 -231 163 -310 269 -133 178 -229 482 -226 719 0 56 10 177 17 210 3 14 8
38 11 54 8 48 42 164 64 223 l20 54 -22 -7 c-18 -5 -217 -151 -238 -174 -3 -3
-25 -21 -50 -41 -25 -20 -55 -45 -66 -55 -12 -11 -48 -41 -80 -69 -236 -202
-523 -502 -725 -757 -130 -166 -134 -170 -143 -187 -5 -9 -12 -18 -15 -21 -11
-9 -191 -274 -228 -335 -53 -89 -151 -258 -198 -344 -58 -105 -62 -130 -24
-137 12 -2 157 -24 259 -39 36 -6 41 -7 155 -24 39 -6 88 -13 109 -15 22 -3
42 -10 47 -17 4 -7 -21 -45 -66 -98 -103 -123 -188 -243 -327 -461 -116 -183
-282 -506 -383 -745 -37 -88 -73 -173 -80 -190 -59 -137 -209 -596 -231 -709
-2 -10 -8 -33 -13 -50 -9 -27 -59 -269 -75 -361 -12 -68 -21 -197 -17 -257 1
-10 8 -18 18 -18 9 0 95 24 192 54 97 30 192 59 211 64 19 6 94 28 165 50 325
100 401 122 411 118 7 -3 3 -35 -13 -98 -12 -51 -28 -122 -33 -158 -6 -36 -13
-76 -15 -90 -2 -14 -7 -56 -11 -95 -3 -38 -8 -83 -9 -100 -27 -258 -27 -1063
0 -1305 2 -19 6 -62 10 -95 19 -190 52 -416 81 -555 9 -41 18 -86 20 -99 3
-12 12 -53 20 -90 9 -36 18 -74 20 -83 4 -20 6 -27 29 -113 21 -78 92 -291
110 -330 7 -16 23 -55 35 -85 38 -96 121 -250 142 -261 20 -11 40 -2 83 37 11
11 43 37 70 59 28 21 52 42 55 45 3 3 32 27 65 55 148 122 432 405 629 626
214 240 542 667 745 971 25 37 48 65 53 62 8 -5 35 -88 44 -134 3 -14 12 -48
20 -76 8 -28 17 -60 19 -70 2 -11 16 -67 29 -127 14 -59 28 -129 32 -155 3
-26 8 -49 9 -52 3 -5 9 -40 20 -117 2 -15 8 -62 14 -103 29 -205 36 -328 36
-635 0 -255 -7 -435 -20 -515 -2 -14 -7 -56 -10 -93 -3 -37 -7 -82 -10 -100
-2 -18 -9 -68 -15 -112 -25 -186 -28 -202 -60 -385 -16 -91 -32 -181 -35 -200
-3 -19 -8 -42 -10 -50 -2 -8 -6 -26 -9 -40 -2 -14 -12 -65 -21 -115 -10 -49
-19 -99 -21 -111 -2 -11 5 -30 15 -41 35 -37 308 -163 546 -251 74 -28 337
-105 395 -116 71 -14 88 -18 120 -26 43 -11 82 -19 135 -26 22 -3 65 -9 95
-14 59 -9 1188 -6 1230 3 14 3 81 15 150 27 651 112 1312 373 1834 723 101 68
105 67 125 -22 6 -25 35 -140 66 -256 30 -115 65 -250 77 -298 13 -51 29 -92
38 -97 17 -9 83 33 266 166 520 378 957 849 1269 1369 65 108 185 341 230 445
20 47 43 99 50 115 45 100 167 462 190 565 2 8 13 53 24 100 18 74 51 236 65
318 3 15 8 43 11 62 17 98 32 226 28 237 -3 7 3 16 12 20 13 4 31 -8 70 -50
28 -31 98 -107 156 -169 57 -62 127 -137 154 -168 62 -68 86 -90 97 -90 35 0
245 806 274 1050 3 30 8 58 10 62 3 4 7 35 10 69 3 35 7 65 9 68 1 3 6 47 10
96 4 50 9 92 10 95 6 9 18 314 18 440 0 122 -11 393 -17 427 -2 10 -7 54 -11
97 -4 43 -8 86 -10 95 -1 9 -6 39 -9 66 -23 173 -61 365 -111 560 -20 77 -38
145 -39 150 -16 66 -87 275 -173 510 -85 231 -300 670 -443 905 -5 8 -39 65
-75 125 -108 179 -319 494 -332 494 -17 1 -20 -7 -28 -68 -4 -30 -8 -62 -10
-71 -2 -9 -6 -39 -10 -66 -10 -83 -11 -88 -22 -91 -8 -3 -100 90 -357 362 -38
41 -66 79 -66 91 0 14 17 36 48 60 100 81 106 99 73 216 -24 82 -69 169 -122
234 -57 68 -81 80 -133 63 -104 -33 -244 -120 -301 -187 -15 -17 -33 -32 -42
-32 -8 0 -41 20 -73 45 -79 61 -198 133 -294 179 -116 55 -126 58 -132 42 -5
-12 5 -29 41 -70 67 -75 205 -276 232 -336 32 -73 158 -207 283 -300 18 -14
38 -29 44 -35 6 -5 47 -39 91 -75 179 -145 465 -418 465 -443 0 -11 -5 -9
-116 32 -97 35 -246 67 -369 79 -145 14 -452 7 -605 -13 -99 -13 -263 -58
-337 -91 -28 -13 -61 -24 -71 -24 -12 0 -59 43 -123 112 -217 236 -390 411
-582 592 -131 122 -134 127 -141 216 -4 48 18 155 44 215 27 64 97 172 116
179 15 6 19 41 6 50 -5 3 -37 -2 -73 -10 -35 -9 -73 -17 -83 -19 -45 -10 -208
-98 -273 -148 -82 -63 -63 -66 -205 26 -48 32 -90 57 -93 57 -3 0 -22 10 -43
23 -55 34 -291 139 -417 185 -162 59 -249 69 -350 41 -175 -48 -406 -155 -563
-260 -110 -74 -214 -159 -209 -172 16 -51 415 -243 605 -291 107 -27 127 -29
420 -31 161 -2 321 -6 355 -9 125 -14 234 -53 299 -109 207 -179 503 -465 663
-642 44 -48 90 -99 103 -111 29 -30 18 -30 -88 0 -47 13 -101 28 -120 32 -19
4 -37 8 -40 9 -4 1 -110 19 -180 31 -114 19 -254 21 -1035 13 -243 -3 -348 1
-440 16 -64 11 -210 48 -219 56 -6 5 -16 9 -24 9 -20 0 -176 74 -237 112 -166
105 -304 238 -391 378 -72 117 -110 228 -128 380 -9 66 -10 67 -151 86 -27 3
-59 8 -70 10 -10 2 -37 6 -60 9 -22 4 -53 9 -70 12 -40 7 -65 10 -92 12 -44 2
-23 38 85 142 122 119 210 191 332 273 88 59 266 150 358 182 33 11 52 24 52
34 0 9 -51 58 -114 108 -63 51 -117 99 -120 108 -4 10 24 36 91 86 293 217
634 385 1033 507 209 63 531 129 625 127 64 -1 80 -7 183 -59 143 -73 269
-143 397 -220 55 -33 109 -66 120 -72 33 -18 129 -80 333 -217 107 -71 201
-128 210 -126 33 6 125 232 146 358 3 19 8 46 10 60 3 14 7 41 10 61 7 44 16
69 26 69 16 0 220 -98 320 -154 186 -105 476 -292 615 -396 18 -14 46 -34 61
-45 108 -77 365 -292 503 -422 92 -87 99 -84 52 19 -29 63 -91 209 -129 303
-29 72 -80 218 -103 300 -30 104 -55 217 -65 300 -4 28 -8 57 -10 65 -1 8 -3
22 -3 31 -1 24 -64 86 -183 180 -357 285 -788 492 -1381 663 -205 60 -222 59
-191 -3 22 -45 84 -228 90 -270 3 -20 7 -38 9 -41 2 -3 7 -33 10 -65 4 -33 11
-82 15 -108 11 -72 -9 -71 -77 5 -212 235 -449 439 -670 575 -99 62 -136 77
-193 79 -25 1 -99 5 -165 9 -102 7 -503 13 -508 8z m2171 -4058 c80 -56 266
-168 312 -188 8 -4 22 -11 30 -16 22 -14 115 -55 195 -87 39 -15 76 -33 84
-40 12 -10 14 -76 14 -366 0 -194 -3 -365 -6 -379 -4 -17 -36 -49 -89 -90 -46
-35 -85 -66 -88 -69 -33 -38 -451 -336 -555 -396 -259 -150 -387 -213 -542
-267 -57 -20 -131 -41 -165 -48 -35 -6 -74 -13 -88 -16 -14 -3 -59 -5 -101 -6
-93 -1 -114 11 -152 84 -14 30 -33 65 -42 79 -12 21 -98 180 -233 430 -19 36
-45 83 -57 105 -12 22 -36 65 -52 95 -17 30 -44 81 -62 113 -17 31 -45 83 -62
115 -18 31 -42 76 -55 100 -13 23 -24 49 -24 56 0 8 17 28 38 46 103 85 487
344 607 410 22 12 56 31 75 42 39 23 326 168 380 191 152 67 452 160 535 166
6 1 52 -28 103 -64z m1685 -105 c32 -88 74 -221 82 -259 2 -9 10 -43 18 -76 8
-33 18 -78 23 -100 4 -22 8 -44 9 -50 42 -197 53 -590 21 -760 -2 -11 -6 -36
-10 -55 -12 -67 -15 -79 -36 -155 -37 -132 -104 -285 -128 -293 -6 -2 -21 18
-33 45 -13 26 -38 72 -56 101 -18 29 -33 55 -33 57 0 10 -106 154 -170 231
-38 44 -107 121 -154 170 -135 141 -128 112 -130 531 -1 255 2 360 11 372 6 9
51 41 100 71 99 60 333 225 384 271 31 28 34 29 50 12 9 -10 33 -61 52 -113z
m-607 -1779 c48 -31 187 -256 243 -391 12 -30 26 -64 30 -75 12 -28 32 -96 35
-120 8 -53 -95 -367 -174 -530 -108 -224 -278 -443 -448 -577 -37 -29 -73 -59
-81 -66 -7 -7 -20 -12 -29 -10 -13 3 -16 25 -18 138 -1 122 -8 221 -19 290 -2
14 -7 45 -10 69 -7 57 -43 235 -57 284 -12 38 -27 46 -50 24 -97 -92 -256
-197 -419 -275 -146 -71 -421 -166 -454 -158 -13 3 -32 23 -43 43 -10 21 -28
54 -39 73 -23 41 -124 225 -178 325 -21 39 -60 109 -86 158 -65 116 -65 122 7
132 264 39 616 224 1053 553 l154 116 143 1 c78 0 145 2 148 5 2 3 65 5 138 5
94 -1 139 -5 154 -14z"/>
</g>
</svg>
